<svg width="17" height="17" viewBox="0 0 17 17" fill="none" xmlns="http://www.w3.org/2000/svg">
<g clipPath="url(#clip0_222_1043)">
<path d="M13.5011 15.0876H2.83445C2.65764 15.0876 2.48807 15.0173 2.36305 14.8923C2.23802 14.7673 2.16779 14.5977 2.16779 14.4209V2.42091C2.16779 2.2441 2.23802 2.07453 2.36305 1.9495C2.48807 1.82448 2.65764 1.75424 2.83445 1.75424H13.5011C13.6779 1.75424 13.8475 1.82448 13.9725 1.9495C14.0975 2.07453 14.1678 2.2441 14.1678 2.42091V14.4209C14.1678 14.5977 14.0975 14.7673 13.9725 14.8923C13.8475 15.0173 13.6779 15.0876 13.5011 15.0876ZM12.8345 13.7542V3.08758H3.50112V13.7542H12.8345ZM6.16779 4.42091V5.75424C6.16779 6.28467 6.3785 6.79338 6.75357 7.16846C7.12864 7.54353 7.63735 7.75424 8.16779 7.75424C8.69822 7.75424 9.20693 7.54353 9.582 7.16846C9.95707 6.79338 10.1678 6.28467 10.1678 5.75424V4.42091H11.5011V5.75424C11.5011 6.6383 11.1499 7.48614 10.5248 8.11126C9.89969 8.73639 9.05184 9.08757 8.16779 9.08757C7.28373 9.08757 6.43588 8.73639 5.81076 8.11126C5.18564 7.48614 4.83445 6.6383 4.83445 5.75424V4.42091H6.16779Z" fill="#1A3A4F"/>
</g>
<defs>
<clipPath id="clip0_222_1043">
<rect width="16" height="16" fill="white" transform="translate(0.167786 0.420898)"/>
</clipPath>
</defs>
</svg>
